<svg width="320" height="48" viewBox="0 0 320 48" fill="none" xmlns="http://www.w3.org/2000/svg">
<g clip-path="url(#clip0)">
<path d="M23.6222 -0.413046C23.7467 -0.77127 24.2533 -0.771269 24.3778 -0.413045L30.2567 16.4997C30.3116 16.6577 30.4591 16.7649 30.6264 16.7683L48.528 17.1331C48.9072 17.1408 49.0637 17.6226 48.7615 17.8518L34.4932 28.6692C34.3599 28.7703 34.3036 28.9437 34.352 29.1038L39.537 46.242C39.6468 46.605 39.2369 46.9028 38.9256 46.6862L24.2285 36.459C24.0912 36.3634 23.9089 36.3634 23.7715 36.459L9.07436 46.6862C8.76307 46.9028 8.35321 46.605 8.46303 46.242L13.648 29.1038C13.6964 28.9437 13.6401 28.7703 13.5068 28.6692L-0.761525 17.8518C-1.06374 17.6226 -0.907186 17.1408 -0.528016 17.1331L17.3736 16.7683C17.5409 16.7649 17.6884 16.6577 17.7433 16.4997L23.6222 -0.413046Z" fill="#FFAC05"/>
<path d="M91.6222 -0.413046C91.7467 -0.77127 92.2533 -0.771269 92.3778 -0.413045L98.2567 16.4997C98.3116 16.6577 98.4591 16.7649 98.6264 16.7683L116.528 17.1331C116.907 17.1408 117.064 17.6226 116.762 17.8518L102.493 28.6692C102.36 28.7703 102.304 28.9437 102.352 29.1038L107.537 46.242C107.647 46.605 107.237 46.9028 106.926 46.6862L92.2285 36.459C92.0912 36.3634 91.9089 36.3634 91.7715 36.459L77.0744 46.6862C76.7631 46.9028 76.3532 46.605 76.463 46.242L81.648 29.1038C81.6964 28.9437 81.6401 28.7703 81.5068 28.6692L67.2385 17.8518C66.9363 17.6226 67.0928 17.1408 67.472 17.1331L85.3736 16.7683C85.5409 16.7649 85.6884 16.6577 85.7433 16.4997L91.6222 -0.413046Z" fill="#FFAC05"/>
<path d="M159.622 -0.413046C159.747 -0.77127 160.253 -0.771269 160.378 -0.413045L166.257 16.4997C166.312 16.6577 166.459 16.7649 166.626 16.7683L184.528 17.1331C184.907 17.1408 185.064 17.6226 184.762 17.8518L170.493 28.6692C170.36 28.7703 170.304 28.9437 170.352 29.1038L175.537 46.242C175.647 46.605 175.237 46.9028 174.926 46.6862L160.228 36.459C160.091 36.3634 159.909 36.3634 159.772 36.459L145.074 46.6862C144.763 46.9028 144.353 46.605 144.463 46.242L149.648 29.1038C149.696 28.9437 149.64 28.7703 149.507 28.6692L135.238 17.8518C134.936 17.6226 135.093 17.1408 135.472 17.1331L153.374 16.7683C153.541 16.7649 153.688 16.6577 153.743 16.4997L159.622 -0.413046Z" fill="#FFAC05"/>
<path d="M227.622 -0.413046C227.747 -0.77127 228.253 -0.771269 228.378 -0.413045L234.257 16.4997C234.312 16.6577 234.459 16.7649 234.626 16.7683L252.528 17.1331C252.907 17.1408 253.064 17.6226 252.762 17.8518L238.493 28.6692C238.36 28.7703 238.304 28.9437 238.352 29.1038L243.537 46.242C243.647 46.605 243.237 46.9028 242.926 46.6862L228.228 36.459C228.091 36.3634 227.909 36.3634 227.772 36.459L213.074 46.6862C212.763 46.9028 212.353 46.605 212.463 46.242L217.648 29.1038C217.696 28.9437 217.64 28.7703 217.507 28.6692L203.238 17.8518C202.936 17.6226 203.093 17.1408 203.472 17.1331L221.374 16.7683C221.541 16.7649 221.688 16.6577 221.743 16.4997L227.622 -0.413046Z" fill="#FFAC05"/>
<path d="M295.622 -0.413046C295.747 -0.77127 296.253 -0.771269 296.378 -0.413045L302.257 16.4997C302.312 16.6577 302.459 16.7649 302.626 16.7683L320.528 17.1331C320.907 17.1408 321.064 17.6226 320.762 17.8518L306.493 28.6692C306.36 28.7703 306.304 28.9437 306.352 29.1038L311.537 46.242C311.647 46.605 311.237 46.9028 310.926 46.6862L296.228 36.459C296.091 36.3634 295.909 36.3634 295.772 36.459L281.074 46.6862C280.763 46.9028 280.353 46.605 280.463 46.242L285.648 29.1038C285.696 28.9437 285.64 28.7703 285.507 28.6692L271.238 17.8518C270.936 17.6226 271.093 17.1408 271.472 17.1331L289.374 16.7683C289.541 16.7649 289.688 16.6577 289.743 16.4997L295.622 -0.413046Z" fill="#D0D6DB"/>
<g clip-path="url(#clip1)">
<path d="M295.622 -0.413046C295.747 -0.77127 296.253 -0.771269 296.378 -0.413045L302.257 16.4997C302.312 16.6577 302.459 16.7649 302.626 16.7683L320.528 17.1331C320.907 17.1408 321.064 17.6226 320.762 17.8518L306.493 28.6692C306.36 28.7703 306.304 28.9437 306.352 29.1038L311.537 46.242C311.647 46.605 311.237 46.9028 310.926 46.6862L296.228 36.459C296.091 36.3634 295.909 36.3634 295.772 36.459L281.074 46.6862C280.763 46.9028 280.353 46.605 280.463 46.242L285.648 29.1038C285.696 28.9437 285.64 28.7703 285.507 28.6692L271.238 17.8518C270.936 17.6226 271.093 17.1408 271.472 17.1331L289.374 16.7683C289.541 16.7649 289.688 16.6577 289.743 16.4997L295.622 -0.413046Z" fill="#FFAC05"/>
</g>
</g>
<defs>
<clipPath id="clip0">
<rect width="320" height="48" fill="white"/>
</clipPath>
<clipPath id="clip1">
<rect width="24" height="48" fill="white" transform="translate(272)"/>
</clipPath>
</defs>
</svg>
