<svg width="48" height="48" viewBox="0 0 48 48" fill="none" xmlns="http://www.w3.org/2000/svg">
<path opacity="0.2" d="M20 8H8C5.8 8 4.02 9.8 4.02 12L4 38C4 40.2 5.8 42 8 42H40C42.2 42 44 40.2 44 38V16C44 13.8 42.2 12 40 12H24L20 8Z" fill="#3070F0"/>
<path fill-rule="evenodd" clip-rule="evenodd" d="M4.02 12L4 38C4 40.2 5.8 42 8 42H40C42.2 42 44 40.2 44 38V16C44 13.8 42.2 12 40 12H24L20 8H8C5.8 8 4.02 9.8 4.02 12ZM19.1716 10H8C6.9176 10 6.02 10.8915 6.02 12L6 38C6.00037 39.0951 6.90479 40 8 40H40C41.0954 40 42 39.0954 42 38V16C42 14.9046 41.0954 14 40 14H23.1716L19.1716 10Z" fill="#3070F0"/>
<path fill-rule="evenodd" clip-rule="evenodd" d="M18.5858 17.9962L24.2929 12.2891L25.7071 13.7033L19.4142 19.9962H4V17.9962H18.5858Z" fill="#3070F0"/>
</svg>
