<svg width="48" height="48" viewBox="0 0 48 48" fill="none" xmlns="http://www.w3.org/2000/svg">
<path opacity="0.2" fill-rule="evenodd" clip-rule="evenodd" d="M20 4H28V40H20V4ZM8 20H16V40H8V20ZM40 12H32V40H40V12Z" fill="#3070F0"/>
<path fill-rule="evenodd" clip-rule="evenodd" d="M20 4H28V40H20V4ZM22 38H26V6H22V38ZM8 20H16V40H8V20ZM10 38H14V22H10V38ZM38 14H34V38H38V14ZM40 12V40H32V12H40Z" fill="#3070F0"/>
<rect x="2" y="44" width="44" height="2" fill="#3070F0"/>
<rect x="2" y="2" width="2" height="44" fill="#3070F0"/>
<path d="M4 4H6V2H4V4Z" fill="#3070F0"/>
<path d="M4 10H6V8H4V10Z" fill="#3070F0"/>
<path d="M4 16H6V14H4V16Z" fill="#3070F0"/>
<path d="M4 22H6V20H4V22Z" fill="#3070F0"/>
<path d="M4 28H6V26H4V28Z" fill="#3070F0"/>
<path d="M4 34H6V32H4V34Z" fill="#3070F0"/>
<path d="M4 40H6V38H4V40Z" fill="#3070F0"/>
<path d="M8 44H10V42H8V44Z" fill="#3070F0"/>
<path d="M14 44H16V42H14V44Z" fill="#3070F0"/>
<path d="M20 44H22V42H20V44Z" fill="#3070F0"/>
<path d="M26 44H28V42H26V44Z" fill="#3070F0"/>
<path d="M32 44H34V42H32V44Z" fill="#3070F0"/>
<path d="M38 44H40V42H38V44Z" fill="#3070F0"/>
<path d="M44 44H46V42H44V44Z" fill="#3070F0"/>
</svg>
