<svg width="48" height="48" viewBox="0 0 48 48" fill="none" xmlns="http://www.w3.org/2000/svg">
<path opacity="0.2" d="M5 10L2 20L8 22V40H10.004L33 46L38 28H44V18L35.75 12.498L35 10L25 6C24.666 7.332 24 10 20 10C16 10 15.334 7.332 15 6L5 10Z" fill="#3070F0"/>
<path fill-rule="evenodd" clip-rule="evenodd" d="M35 10L35.75 12.5L44 18V28H38L33 46L10 40H8V22L2 20L5 10L15 6H25L35 10ZM32 38.668V40H18L31.5 43.3L32.672 38.89L32 38.668ZM20 10C22.388 10 23.588 9.05 24.238 8H15.762C16.412 9.05 17.612 10 20 10ZM10 34V38H30V34H10ZM30 32V16H32V19.7L35.5 18.7L33.396 11.512L26.18 8.626C25.976 9.014 25.722 9.414 25.398 9.794C24.26 11.134 22.504 12 20 12C17.496 12 15.74 11.134 14.602 9.794C14.278 9.416 14.022 9.016 13.82 8.626L6.604 11.512L4.5 18.7L8 19.7V16H10V32H30ZM36.098 26H42V19.5L36.812 16.042L38 20L32 22V36.5L33.226 36.808L36.098 26ZM16 21C16 20 17 18 20 18C23 18 24 20 24 21C24 22 23 23.5 22 23.5C23 23.5 24 24 24 26C24 27 23 29 20 29C17 29 16 27 16 26H18C18 26 18 27 20 27C21 27 22 27 22 26C22 25 22 24 19 24V22.5C22 22.5 22 22 22 21.5C22 20 21 20 20 20C18 20 18 21 18 21H16Z" fill="#3070F0"/>
</svg>
