<svg width="48" height="48" viewBox="0 0 48 48" fill="none" xmlns="http://www.w3.org/2000/svg">
<path opacity="0.2" d="M4 46C6 46 6 43 8 43C10 43 10 46 12 46C14 46 14 43 16 43C18 43 18 46 20 46C22 46 22 43 24 43C26 43 26 46 28 46C30 46 30 43 32 43C34 43 34 46 36 46C38 46 38 43 40 43C42 43 42 46 44 46V2C42 2 42 5 40 5C38 5 38 2 36 2C34 2 34 5 32 5C30 5 30 2 28 2C26 2 26 5 24 5C22 5 22 2 20 2C18 2 18 5 16 5C14 5 14 2 12 2C10 2 10 5 8 5C6 5 6 2 4 2V46Z" fill="#3070F0"/>
<path fill-rule="evenodd" clip-rule="evenodd" d="M6 42.4763C6.52196 42.2036 7.17824 42 8.00001 42C9.8322 42 10.8418 43.012 11.374 43.5455C11.3878 43.5593 11.4011 43.5727 11.4142 43.5858C11.8387 44.0103 11.8761 44.0077 11.9631 44.0016C11.9743 44.0008 11.9863 44 12 44C12.0137 44 12.0257 44.0008 12.0369 44.0016C12.1239 44.0077 12.1613 44.0103 12.5858 43.5858C12.5989 43.5727 12.6123 43.5593 12.626 43.5455C13.1583 43.012 14.1678 42 16 42C17.8322 42 18.8418 43.012 19.374 43.5455C19.3877 43.5593 19.4011 43.5727 19.4142 43.5858C19.8387 44.0103 19.8761 44.0077 19.9631 44.0016C19.9743 44.0008 19.9863 44 20 44C20.0137 44 20.0257 44.0008 20.0369 44.0016C20.1239 44.0077 20.1613 44.0103 20.5858 43.5858C20.5989 43.5727 20.6123 43.5593 20.626 43.5455C21.1583 43.012 22.1678 42 24 42C25.8322 42 26.8418 43.012 27.374 43.5455C27.3878 43.5593 27.4011 43.5727 27.4142 43.5858C27.8387 44.0103 27.8761 44.0077 27.9631 44.0016C27.9743 44.0008 27.9863 44 28 44C28.0137 44 28.0257 44.0008 28.0369 44.0016C28.1239 44.0077 28.1613 44.0103 28.5858 43.5858C28.5989 43.5727 28.6123 43.5593 28.626 43.5455C29.1583 43.012 30.1678 42 32 42C33.8322 42 34.8418 43.012 35.3741 43.5456C35.3878 43.5593 35.4011 43.5727 35.4142 43.5858C35.8387 44.0103 35.8761 44.0077 35.9631 44.0016C35.9743 44.0008 35.9863 44 36 44C36.0137 44 36.0257 44.0008 36.0368 44.0016C36.1239 44.0077 36.1613 44.0103 36.5858 43.5858C36.5989 43.5727 36.6123 43.5593 36.626 43.5456C37.1582 43.012 38.1678 42 40 42C40.8218 42 41.478 42.2036 42 42.4763V5.52375C41.478 5.79643 40.8218 6 40 6C38.1678 6 37.1582 4.98802 36.626 4.45446C36.6123 4.44072 36.5989 4.42729 36.5858 4.41421C36.1613 3.98968 36.1239 3.9923 36.0368 3.99838C36.0257 3.99916 36.0137 4 36 4C35.9863 4 35.9743 3.99916 35.9631 3.99838C35.8761 3.9923 35.8387 3.98968 35.4142 4.41421C35.4011 4.42729 35.3877 4.44071 35.374 4.45445C34.8418 4.98801 33.8322 6 32 6C30.1678 6 29.1583 4.98802 28.626 4.45446C28.6123 4.44072 28.5989 4.4273 28.5858 4.41422C28.1613 3.98969 28.1239 3.9923 28.0369 3.99838C28.0257 3.99916 28.0137 4 28 4C27.9863 4 27.9743 3.99916 27.9631 3.99838C27.8762 3.9923 27.8387 3.98968 27.4142 4.41421C27.4011 4.42729 27.3877 4.44071 27.374 4.45445C26.8418 4.98801 25.8322 6 24 6C22.1678 6 21.1583 4.98802 20.626 4.45446C20.6123 4.44072 20.5989 4.4273 20.5858 4.41422C20.1613 3.98969 20.1239 3.9923 20.0369 3.99838C20.0257 3.99916 20.0137 4 20 4C19.9863 4 19.9743 3.99916 19.9631 3.99838C19.8761 3.9923 19.8387 3.98968 19.4142 4.41421C19.4011 4.42729 19.3878 4.44071 19.374 4.45445C18.8418 4.98801 17.8322 6 16 6C14.1678 6 13.1583 4.98802 12.626 4.45446C12.6123 4.44072 12.5989 4.4273 12.5858 4.41422C12.1613 3.98969 12.1239 3.9923 12.0369 3.99838C12.0257 3.99916 12.0137 4 12 4C11.9863 4 11.9743 3.99916 11.9631 3.99838C11.8761 3.9923 11.8387 3.98968 11.4142 4.41421C11.4011 4.42729 11.3878 4.44071 11.374 4.45445C10.8418 4.98801 9.8322 6 8.00001 6C7.17824 6 6.52196 5.79642 6 5.52374V42.4763ZM6 45C5.5 45.5 5 46 4 46V2C5 2 5.5 2.5 6 3C6 3 6 2.99999 6 3C6.5 3.5 7.00001 4 8.00001 4C9.00001 4 9.50001 3.5 10 3C10.5 2.5 11 2 12 2C13 2 13.5 2.5 14 3C14.5 3.5 15 4 16 4C17 4 17.5 3.5 18 3C18.5 2.5 19 2 20 2C21 2 21.5 2.5 22 3C22.5 3.5 23 4 24 4C25 4 25.5 3.5 26 3C26.5 2.5 27 2 28 2C29 2 29.5 2.5 30 3C30.5 3.5 31 4 32 4C33 4 33.5 3.5 34 3C34.5 2.5 35 2 36 2C37 2 37.5 2.5 38 3C38.5 3.5 39 4 40 4C41 4 41.5 3.5 42 3C42.5 2.5 43 2 44 2V46C43 46 42.5 45.5 42 45C41.5 44.5 41 44 40 44C39 44 38.5 44.5 38 45C37.5 45.5 37 46 36 46C35 46 34.5 45.5 34 45C33.5 44.5 33 44 32 44C31 44 30.5 44.5 30 45C29.5 45.5 29 46 28 46C27 46 26.5 45.5 26 45C25.5 44.5 25 44 24 44C23 44 22.5 44.5 22 45C21.5 45.5 21 46 20 46C19 46 18.5 45.5 18 45C17.5 44.5 17 44 16 44C15 44 14.5 44.5 14 45C13.5 45.5 13 46 12 46C11 46 10.5 45.5 10 45C9.50001 44.5 9.00001 44 8.00001 44C7.00001 44 6.50001 44.5 6 45Z" fill="#3070F0"/>
<path d="M12 13C12 13.5523 12.4477 14 13 14H27C27.5523 14 28 13.5523 28 13C28 12.4477 27.5523 12 27 12H13C12.4477 12 12 12.4477 12 13Z" fill="#3070F0"/>
<path d="M12 19C12 19.5523 12.4477 20 13 20H23C23.5523 20 24 19.5523 24 19C24 18.4477 23.5523 18 23 18H13C12.4477 18 12 18.4477 12 19Z" fill="#3070F0"/>
<path d="M12 25C12 25.5523 12.4477 26 13 26H27C27.5523 26 28 25.5523 28 25C28 24.4477 27.5523 24 27 24H13C12.4477 24 12 24.4477 12 25Z" fill="#3070F0"/>
<path d="M12 37C12 37.5523 12.4477 38 13 38H23C23.5523 38 24 37.5523 24 37C24 36.4477 23.5523 36 23 36H13C12.4477 36 12 36.4477 12 37Z" fill="#3070F0"/>
<path d="M8 32H10V30H8V32Z" fill="#3070F0"/>
<path d="M12 32H14V30H12V32Z" fill="#3070F0"/>
<path d="M16 32H18V30H16V32Z" fill="#3070F0"/>
<path d="M20 32H22V30H20V32Z" fill="#3070F0"/>
<path d="M24 32H26V30H24V32Z" fill="#3070F0"/>
<path d="M28 32H30V30H28V32Z" fill="#3070F0"/>
<path d="M32 32H34V30H32V32Z" fill="#3070F0"/>
<path d="M36 32H38V30H36V32Z" fill="#3070F0"/>
<path d="M40 32H42V30H40V32Z" fill="#3070F0"/>
<path d="M32 13C32 13.5523 32.4477 14 33 14H35C35.5523 14 36 13.5523 36 13C36 12.4477 35.5523 12 35 12H33C32.4477 12 32 12.4477 32 13Z" fill="#3070F0"/>
<path d="M32 19C32 19.5523 32.4477 20 33 20H35C35.5523 20 36 19.5523 36 19C36 18.4477 35.5523 18 35 18H33C32.4477 18 32 18.4477 32 19Z" fill="#3070F0"/>
<path d="M32 25C32 25.5523 32.4477 26 33 26H35C35.5523 26 36 25.5523 36 25C36 24.4477 35.5523 24 35 24H33C32.4477 24 32 24.4477 32 25Z" fill="#3070F0"/>
<path d="M32 37C32 37.5523 32.4477 38 33 38H35C35.5523 38 36 37.5523 36 37C36 36.4477 35.5523 36 35 36H33C32.4477 36 32 36.4477 32 37Z" fill="#3070F0"/>
</svg>
