<svg width="48" height="48" viewBox="0 0 48 48" fill="none" xmlns="http://www.w3.org/2000/svg">
<path opacity="0.2" fill-rule="evenodd" clip-rule="evenodd" d="M5.11376 33.9302C6.14903 30.0665 10.6413 22.5739 20.3283 23.5131L21.8737 23.9272C20.7679 31.367 17.8678 36.2222 14.1123 42.5094L14.0708 42.5788C14.0708 42.5788 16.7817 46.7342 18.8555 46.7342C21.7463 41.4634 24.9383 34.2783 25.4342 25.3852C28.7156 27.8825 32.92 33.3402 30.2278 40.6595C34.3103 38.3025 40.133 31.5115 30.764 23.2035C34.3289 22.7783 40.6954 24.0035 41.5088 33.3318C43.0617 27.5363 43.7799 19.4465 34.507 16.9619C30.6433 15.9266 27.2279 17.082 24.7784 18.4962C24.7129 18.3563 24.645 18.2085 24.574 18.054C23.4435 15.593 21.5228 11.4122 15.7062 9.85363C7.97876 7.78308 3.26925 13.7681 1.45752 20.5296C3.4356 18.2989 7.97133 13.9927 14.1533 15.6492C18.017 16.6845 19.4312 19.1339 19.4312 19.1339C17.8213 18.7026 13.4415 18.3055 9.96138 19.7024C5.32122 21.5649 1.31882 28.7746 5.11376 33.9302Z" fill="#3070F0"/>
<path fill-rule="evenodd" clip-rule="evenodd" d="M3.83784 16.9709C6.37879 15.0944 9.99816 13.503 14.4122 14.6857C16.5109 15.2481 17.9659 16.2016 18.9047 17.034C19.3727 17.4491 19.7108 17.8325 19.9365 18.12C20.0495 18.2639 20.1345 18.3841 20.1938 18.4726C20.2235 18.5169 20.2468 18.5534 20.2639 18.581L20.2851 18.6157L20.2923 18.6278L20.2951 18.6326L20.2963 18.6346C20.2965 18.635 20.2973 18.6364 19.4313 19.1364L20.2973 18.6364C20.4995 18.9867 20.4708 19.4243 20.2246 19.7452C19.9784 20.066 19.5631 20.207 19.1725 20.1023C18.4745 19.9153 17.0713 19.7144 15.4101 19.7349C13.7525 19.7554 11.9209 19.9959 10.334 20.6328C8.30284 21.4481 6.31945 23.4932 5.29884 25.9654C4.55629 27.7641 4.35584 29.6998 4.95121 31.4825C5.74436 29.7544 7.00268 27.8202 8.8042 26.183C11.4581 23.7711 15.2769 22.0211 20.4249 22.5202C20.4798 22.5255 20.5341 22.5354 20.5873 22.5496L22.1327 22.9637C22.6235 23.0952 22.9377 23.574 22.863 24.0767C21.7542 31.5365 18.8767 36.4828 15.2606 42.5396C15.2835 42.5713 15.3075 42.6041 15.3324 42.638C15.6061 43.0101 15.9885 43.5018 16.4282 43.9892C16.8721 44.4814 17.3505 44.9426 17.8141 45.2735C18.0121 45.4148 18.1874 45.5179 18.3396 45.5904C21.0922 40.4543 23.972 33.6497 24.4359 25.332C24.4565 24.9626 24.6794 24.6347 25.0154 24.4797C25.3514 24.3247 25.7455 24.3678 26.0399 24.5919C29.0619 26.8917 32.9521 31.6842 31.9212 38.1501C33.1008 37.0303 34.1347 35.5833 34.5731 33.9119C35.2453 31.3487 34.593 27.9377 30.1007 23.9542C29.806 23.6929 29.6922 23.283 29.8098 22.9072C29.9275 22.5314 30.2547 22.2596 30.6457 22.213C32.5809 21.9822 35.3246 22.1892 37.7212 23.7793C39.2164 24.7714 40.5146 26.2606 41.3943 28.3932C41.5058 26.9382 41.4428 25.4943 41.0991 24.1565C40.7449 22.7774 40.0946 21.5202 39.0286 20.4665C37.9608 19.4111 36.4303 18.5149 34.2483 17.9302C30.7312 16.9878 27.5945 18.0275 25.2785 19.3647C25.036 19.5047 24.7458 19.5366 24.4787 19.4526C24.2115 19.3686 23.9918 19.1765 23.873 18.9228C23.8058 18.7795 23.7366 18.6288 23.6662 18.4755C22.5508 16.0476 20.7951 12.2549 15.4475 10.822C11.9171 9.87606 9.15052 10.7641 7.0237 12.6332C5.74216 13.7594 4.67619 15.2596 3.83784 16.9709ZM25.2412 17.1161C24.0415 14.5507 21.8333 10.4625 15.9651 8.89016C11.768 7.76555 8.31616 8.83476 5.70344 11.1309C3.13629 13.387 1.42862 16.7766 0.491697 20.2732C0.371662 20.7212 0.57539 21.1929 0.983803 21.4127C1.39222 21.6324 1.89812 21.5425 2.20583 21.1955C4.17008 18.9804 8.32846 15.1261 13.8945 16.6176C14.9879 16.9105 15.8583 17.3247 16.537 17.7523C16.1665 17.7367 15.781 17.7302 15.3854 17.7351C13.5805 17.7574 11.4822 18.0169 9.58899 18.7768C6.97997 19.824 4.64208 22.3151 3.45018 25.2022C2.24832 28.1135 2.15103 31.5944 4.30851 34.5255C4.53636 34.835 4.92145 34.9866 5.29915 34.9154C5.67685 34.8442 5.98031 34.5628 6.07979 34.1915C6.55501 32.418 7.84716 29.7553 10.1493 27.6631C12.4085 25.6099 15.6539 24.0891 20.1507 24.5032L20.7434 24.662C19.5793 31.3942 16.8584 35.9646 13.2539 41.9991L13.2124 42.0685C13.0164 42.3965 13.0246 42.8076 13.2334 43.1277L14.0709 42.5813C13.2334 43.1277 13.2333 43.1275 13.2334 43.1277L13.2369 43.133L13.2443 43.1443L13.2707 43.184C13.2933 43.2178 13.3259 43.2661 13.3676 43.3267C13.4509 43.4478 13.571 43.6188 13.7213 43.8231C14.0207 44.2301 14.4457 44.7773 14.943 45.3287C15.4361 45.8754 16.0241 46.453 16.6521 46.9013C17.2579 47.3337 18.0258 47.7367 18.8556 47.7367C19.2207 47.7367 19.5568 47.5377 19.7324 47.2175C22.4397 42.2813 25.4404 35.6288 26.2748 27.4472C28.9586 30.1242 31.3876 34.6124 29.2894 40.3168C29.1441 40.7119 29.2618 41.1558 29.5838 41.4269C29.9059 41.6981 30.3633 41.7385 30.7279 41.528C32.9003 40.2738 35.6204 37.8022 36.5076 34.4193C37.3002 31.3971 36.5718 27.8975 33.2154 24.213C34.3433 24.3605 35.5355 24.7293 36.6154 25.4458C38.4525 26.6647 40.127 28.9976 40.5126 33.4211C40.5548 33.9047 40.9381 34.2881 41.4216 34.3305C41.9051 34.3728 42.3492 34.0619 42.4748 33.5931C43.262 30.6552 43.8882 26.9752 43.0362 23.6589C42.6051 21.9806 41.7933 20.3872 40.4345 19.0441C39.0775 17.7028 37.2205 16.6561 34.766 15.9984C31.0539 15.0037 27.743 15.8741 25.2412 17.1161Z" fill="#3070F0"/>
<path fill-rule="evenodd" clip-rule="evenodd" d="M17.1253 47.0849C18.1127 47.6546 19.3532 48 21 48H32.9993L33 47L32.9999 46H21C19.6468 46 18.7623 45.7204 18.1247 45.3526C17.4763 44.9785 17.0076 44.4713 16.5309 43.8753C16.4484 43.7722 16.3626 43.6619 16.2734 43.5472C15.885 43.0477 15.4306 42.4634 14.8902 42.013C14.158 41.4029 13.2466 41 12 41C9.78589 41 8.67855 42.3081 7.77949 43.3702C7.64315 43.5313 7.5116 43.6867 7.38171 43.831C6.85934 44.4114 6.30271 44.9324 5.51181 45.3214C4.721 45.7103 3.62753 46 2 46C1.44772 46 1 46.4477 1 47C1 47.5523 1.44772 48 2 48C3.87247 48 5.279 47.6647 6.39444 47.1161C7.50979 46.5676 8.26566 45.8386 8.86829 45.169C9.05249 44.9643 9.21873 44.7732 9.37281 44.5961C10.2757 43.5582 10.7613 43 12 43C12.7534 43 13.217 43.2221 13.6098 43.5495C13.9689 43.8487 14.255 44.2147 14.6285 44.6925C14.7339 44.8273 14.8462 44.9711 14.9691 45.1247C15.4924 45.7787 16.1487 46.5215 17.1253 47.0849ZM47 47C47 46.4477 46.5523 46 46 46H32.9999L33 47L32.9993 48H46C46.5523 48 47 47.5523 47 47Z" fill="#3070F0"/>
<path fill-rule="evenodd" clip-rule="evenodd" d="M35 8.5C32.5147 8.5 30.5 10.5147 30.5 13C30.5 13.5523 30.0523 14 29.5 14C28.9477 14 28.5 13.5523 28.5 13C28.5 9.41015 31.4101 6.5 35 6.5C38.5899 6.5 41.5 9.41015 41.5 13C41.5 14.5023 41.1486 15.6561 40.7015 16.4779C40.4376 16.963 39.8303 17.1424 39.3452 16.8784C38.8601 16.6145 38.6808 16.0072 38.9447 15.5221C39.2247 15.0074 39.5 14.1845 39.5 13C39.5 10.5147 37.4853 8.5 35 8.5Z" fill="#3070F0"/>
<path fill-rule="evenodd" clip-rule="evenodd" d="M35 1C35.5523 1 36 1.44772 36 2V5C36 5.55228 35.5523 6 35 6C34.4477 6 34 5.55228 34 5V2C34 1.44772 34.4477 1 35 1ZM25.2929 4.29289C25.6834 3.90237 26.3166 3.90237 26.7071 4.29289L28.7071 6.29289C29.0976 6.68342 29.0976 7.31658 28.7071 7.70711C28.3166 8.09763 27.6834 8.09763 27.2929 7.70711L25.2929 5.70711C24.9024 5.31658 24.9024 4.68342 25.2929 4.29289ZM43.2929 5.29289C43.6834 4.90237 44.3166 4.90237 44.7071 5.29289C45.0976 5.68342 45.0976 6.31658 44.7071 6.70711L42.7071 8.70711C42.3166 9.09763 41.6834 9.09763 41.2929 8.70711C40.9024 8.31658 40.9024 7.68342 41.2929 7.29289L43.2929 5.29289ZM23 13C23 12.4477 23.4477 12 24 12H27C27.5523 12 28 12.4477 28 13C28 13.5523 27.5523 14 27 14H24C23.4477 14 23 13.5523 23 13ZM42 13C42 12.4477 42.4477 12 43 12H46C46.5523 12 47 12.4477 47 13C47 13.5523 46.5523 14 46 14H43C42.4477 14 42 13.5523 42 13Z" fill="#3070F0"/>
</svg>
