<svg width="48" height="48" viewBox="0 0 48 48" fill="none" xmlns="http://www.w3.org/2000/svg">
<path fill-rule="evenodd" clip-rule="evenodd" d="M24 6C12.9543 6 4 14.9543 4 26C4 37.0457 12.9543 46 24 46C35.0457 46 44 37.0457 44 26C44 14.9543 35.0457 6 24 6ZM24 8C14.0589 8 6 16.0589 6 26C6 35.9411 14.0589 44 24 44C33.9411 44 42 35.9411 42 26C42 16.0589 33.9411 8 24 8Z" fill="#3070F0"/>
<rect opacity="0.2" x="4" y="6" width="40" height="40" rx="20" fill="#3070F0"/>
<path d="M13 17L18 22C18.5523 22.5523 19.4477 22.5523 20 22C20.5523 21.4477 20.5523 20.5523 20 20L15 15C14.4477 14.4477 13.5523 14.4477 13 15C12.4477 15.5523 12.4477 16.4477 13 17Z" fill="#3070F0"/>
<path fill-rule="evenodd" clip-rule="evenodd" d="M24 30C26.2091 30 28 28.2091 28 26C28 23.7909 26.2091 22 24 22C21.7909 22 20 23.7909 20 26C20 28.2091 21.7909 30 24 30ZM24 28C25.1046 28 26 27.1046 26 26C26 24.8954 25.1046 24 24 24C22.8954 24 22 24.8954 22 26C22 27.1046 22.8954 28 24 28Z" fill="#3070F0"/>
<path d="M37 5.99913L43 11.9974C43 11.9974 44 10.9983 45 9.9974C46 8.99653 45 7.9974 45 7.9974L41 3.99913C41 3.99913 40 2.99913 39 3.99913L37 5.99913Z" fill="#3070F0"/>
<path d="M20 1C20 0.447715 20.4477 0 21 0H27C27.5523 0 28 0.447715 28 1V4H20V1Z" fill="#3070F0"/>
</svg>
